<?xml version="1.0" encoding="UTF-8"?>
<svg xmlns="http://www.w3.org/2000/svg" xmlns:xlink="http://www.w3.org/1999/xlink" width="128pt" height="128pt" viewBox="0 0 128 128" version="1.1">
<g id="surface1">
<rect x="0" y="0" width="128" height="128" style="fill:rgb(25.490196%,78.823529%,70.588235%);fill-opacity:1;stroke:none;"/>
<path style=" stroke:none;fill-rule:nonzero;fill:rgb(100%,100%,100%);fill-opacity:1;" d="M 43.007812 88.894531 L 85.054688 88.894531 L 85.054688 39.167969 L 54.65625 39.167969 C 54.464844 39.167969 54.078125 39.359375 53.886719 39.550781 C 50.304688 43.390625 46.785156 47.296875 43.265625 51.136719 C 43.070312 51.328125 42.945312 51.710938 42.945312 52.097656 Z M 89.214844 30.71875 C 91.519531 30.71875 93.441406 32.640625 93.441406 34.945312 L 93.441406 93.121094 C 93.441406 95.425781 91.585938 97.34375 89.214844 97.34375 L 38.785156 97.34375 C 36.480469 97.34375 34.558594 95.425781 34.558594 93.121094 C 34.558594 92.671875 34.558594 52.160156 34.558594 50.558594 C 34.558594 48.894531 35.070312 47.550781 36.222656 46.335938 L 48.894531 32.511719 C 49.984375 31.296875 51.265625 30.785156 52.863281 30.785156 L 89.214844 30.785156 Z M 51.390625 60.03125 C 49.535156 60.03125 48 58.496094 48 56.640625 C 48 54.785156 49.535156 53.246094 51.390625 53.246094 L 57.089844 53.246094 L 57.089844 47.488281 C 57.089844 45.632812 58.625 44.097656 60.480469 44.097656 C 62.335938 44.097656 63.871094 45.632812 63.871094 47.488281 L 63.871094 56.574219 C 63.871094 58.433594 62.335938 59.96875 60.480469 59.96875 L 51.390625 59.96875 Z M 51.390625 60.03125 "/>
</g>
</svg>
