<?xml version="1.0" encoding="UTF-8"?>
<svg xmlns="http://www.w3.org/2000/svg" xmlns:xlink="http://www.w3.org/1999/xlink" width="16pt" height="16pt" viewBox="0 0 16 16" version="1.1">
<g id="surface1">
<rect x="0" y="0" width="16" height="16" style="fill:rgb(25.490196%,78.823529%,70.588235%);fill-opacity:1;stroke:none;"/>
<path style=" stroke:none;fill-rule:nonzero;fill:rgb(100%,100%,100%);fill-opacity:1;" d="M 5.375 11.113281 L 10.632812 11.113281 L 10.632812 4.894531 L 6.832031 4.894531 C 6.808594 4.894531 6.761719 4.921875 6.734375 4.945312 C 6.289062 5.425781 5.847656 5.910156 5.40625 6.390625 C 5.382812 6.414062 5.367188 6.464844 5.367188 6.511719 Z M 11.152344 3.839844 C 11.441406 3.839844 11.679688 4.078125 11.679688 4.367188 L 11.679688 11.640625 C 11.679688 11.929688 11.449219 12.167969 11.152344 12.167969 L 4.847656 12.167969 C 4.558594 12.167969 4.320312 11.929688 4.320312 11.640625 C 4.320312 11.585938 4.320312 6.519531 4.320312 6.320312 C 4.320312 6.113281 4.382812 5.945312 4.527344 5.792969 L 6.113281 4.0625 C 6.246094 3.910156 6.40625 3.847656 6.609375 3.847656 L 11.152344 3.847656 Z M 6.425781 7.503906 C 6.191406 7.503906 6 7.3125 6 7.078125 C 6 6.847656 6.191406 6.65625 6.425781 6.65625 L 7.136719 6.65625 L 7.136719 5.9375 C 7.136719 5.703125 7.328125 5.511719 7.558594 5.511719 C 7.792969 5.511719 7.984375 5.703125 7.984375 5.9375 L 7.984375 7.070312 C 7.984375 7.304688 7.792969 7.496094 7.558594 7.496094 L 6.425781 7.496094 Z M 6.425781 7.503906 "/>
</g>
</svg>
