<?xml version="1.0" encoding="UTF-8"?>
<svg xmlns="http://www.w3.org/2000/svg" xmlns:xlink="http://www.w3.org/1999/xlink" width="19pt" height="19pt" viewBox="0 0 19 19" version="1.1">
<g id="surface1">
<rect x="0" y="0" width="19" height="19" style="fill:rgb(25.490196%,78.823529%,70.588235%);fill-opacity:1;stroke:none;"/>
<path style=" stroke:none;fill-rule:nonzero;fill:rgb(100%,100%,100%);fill-opacity:1;" d="M 6.382812 13.195312 L 12.625 13.195312 L 12.625 5.8125 L 8.113281 5.8125 C 8.085938 5.8125 8.027344 5.84375 8 5.871094 C 7.46875 6.441406 6.945312 7.019531 6.421875 7.589844 C 6.394531 7.617188 6.375 7.675781 6.375 7.734375 Z M 13.242188 4.558594 C 13.585938 4.558594 13.871094 4.84375 13.871094 5.1875 L 13.871094 13.824219 C 13.871094 14.164062 13.59375 14.449219 13.242188 14.449219 L 5.757812 14.449219 C 5.414062 14.449219 5.128906 14.164062 5.128906 13.824219 C 5.128906 13.757812 5.128906 7.742188 5.128906 7.503906 C 5.128906 7.257812 5.207031 7.058594 5.378906 6.878906 L 7.257812 4.824219 C 7.417969 4.644531 7.609375 4.570312 7.847656 4.570312 L 13.242188 4.570312 Z M 7.628906 8.910156 C 7.351562 8.910156 7.125 8.683594 7.125 8.40625 C 7.125 8.132812 7.351562 7.902344 7.628906 7.902344 L 8.472656 7.902344 L 8.472656 7.050781 C 8.472656 6.773438 8.703125 6.546875 8.976562 6.546875 C 9.253906 6.546875 9.480469 6.773438 9.480469 7.050781 L 9.480469 8.398438 C 9.480469 8.671875 9.253906 8.902344 8.976562 8.902344 L 7.628906 8.902344 Z M 7.628906 8.910156 "/>
</g>
</svg>
