<?xml version="1.0" encoding="UTF-8"?>
<svg xmlns="http://www.w3.org/2000/svg" xmlns:xlink="http://www.w3.org/1999/xlink" width="38pt" height="38pt" viewBox="0 0 38 38" version="1.1">
<g id="surface1">
<rect x="0" y="0" width="38" height="38" style="fill:rgb(25.490196%,78.823529%,70.588235%);fill-opacity:1;stroke:none;"/>
<path style=" stroke:none;fill-rule:nonzero;fill:rgb(100%,100%,100%);fill-opacity:1;" d="M 12.769531 26.390625 L 25.25 26.390625 L 25.25 11.628906 L 16.226562 11.628906 C 16.167969 11.628906 16.054688 11.683594 15.996094 11.742188 C 14.933594 12.882812 13.890625 14.039062 12.84375 15.179688 C 12.785156 15.238281 12.75 15.351562 12.75 15.464844 Z M 26.484375 9.121094 C 27.171875 9.121094 27.738281 9.691406 27.738281 10.375 L 27.738281 27.644531 C 27.738281 28.328125 27.1875 28.898438 26.484375 28.898438 L 11.515625 28.898438 C 10.828125 28.898438 10.261719 28.328125 10.261719 27.644531 C 10.261719 27.511719 10.261719 15.484375 10.261719 15.011719 C 10.261719 14.515625 10.410156 14.117188 10.753906 13.757812 L 14.515625 9.652344 C 14.839844 9.289062 15.21875 9.140625 15.695312 9.140625 L 26.484375 9.140625 Z M 15.257812 17.820312 C 14.707031 17.820312 14.25 17.367188 14.25 16.816406 C 14.25 16.265625 14.707031 15.808594 15.257812 15.808594 L 16.949219 15.808594 L 16.949219 14.097656 C 16.949219 13.546875 17.402344 13.089844 17.953125 13.089844 C 18.507812 13.089844 18.960938 13.546875 18.960938 14.097656 L 18.960938 16.796875 C 18.960938 17.347656 18.507812 17.804688 17.953125 17.804688 L 15.257812 17.804688 Z M 15.257812 17.820312 "/>
</g>
</svg>
