<?xml version="1.0" encoding="UTF-8"?>
<svg xmlns="http://www.w3.org/2000/svg" xmlns:xlink="http://www.w3.org/1999/xlink" width="48pt" height="48pt" viewBox="0 0 48 48" version="1.1">
<g id="surface1">
<rect x="0" y="0" width="48" height="48" style="fill:rgb(25.490196%,78.823529%,70.588235%);fill-opacity:1;stroke:none;"/>
<path style=" stroke:none;fill-rule:nonzero;fill:rgb(100%,100%,100%);fill-opacity:1;" d="M 16.128906 33.335938 L 31.894531 33.335938 L 31.894531 14.6875 L 20.496094 14.6875 C 20.425781 14.6875 20.28125 14.761719 20.207031 14.832031 C 18.863281 16.273438 17.542969 17.734375 16.222656 19.175781 C 16.152344 19.246094 16.105469 19.390625 16.105469 19.535156 Z M 33.457031 11.519531 C 34.320312 11.519531 35.039062 12.238281 35.039062 13.105469 L 35.039062 34.921875 C 35.039062 35.785156 34.34375 36.503906 33.457031 36.503906 L 14.542969 36.503906 C 13.679688 36.503906 12.960938 35.785156 12.960938 34.921875 C 12.960938 34.753906 12.960938 19.558594 12.960938 18.960938 C 12.960938 18.335938 13.152344 17.832031 13.585938 17.375 L 18.335938 12.191406 C 18.742188 11.734375 19.222656 11.542969 19.824219 11.542969 L 33.457031 11.542969 Z M 19.273438 22.511719 C 18.574219 22.511719 18 21.9375 18 21.238281 C 18 20.542969 18.574219 19.96875 19.273438 19.96875 L 21.40625 19.96875 L 21.40625 17.808594 C 21.40625 17.113281 21.984375 16.535156 22.679688 16.535156 C 23.375 16.535156 23.953125 17.113281 23.953125 17.808594 L 23.953125 21.214844 C 23.953125 21.910156 23.375 22.488281 22.679688 22.488281 L 19.273438 22.488281 Z M 19.273438 22.511719 "/>
</g>
</svg>
